<mxfile host="app.diagrams.net" modified="2023-02-19T09:06:42.700Z" agent="5.0 (Windows)" etag="FCRJo2AyVRjm5v9wMq9q" version="20.8.18" type="github">
  <diagram name="第 1 页" id="gunLv2JBtEKExqpgDwiK">
    <mxGraphModel dx="1050" dy="562" grid="1" gridSize="10" guides="1" tooltips="1" connect="1" arrows="1" fold="1" page="1" pageScale="1" pageWidth="1654" pageHeight="2336" math="0" shadow="0">
      <root>
        <mxCell id="0" />
        <mxCell id="1" parent="0" />
        <mxCell id="jyCma154ZdDsYqgbDztw-1" value="&lt;div&gt;主节点&lt;/div&gt;&lt;div&gt;（事件发生器）&lt;/div&gt;" style="rounded=0;whiteSpace=wrap;html=1;" vertex="1" parent="1">
          <mxGeometry x="520" y="235" width="120" height="80" as="geometry" />
        </mxCell>
        <mxCell id="jyCma154ZdDsYqgbDztw-2" value="&lt;div&gt;主节点&lt;/div&gt;&lt;div&gt;（事件发生器）&lt;/div&gt;" style="rounded=0;whiteSpace=wrap;html=1;" vertex="1" parent="1">
          <mxGeometry x="870" y="225" width="120" height="80" as="geometry" />
        </mxCell>
        <mxCell id="jyCma154ZdDsYqgbDztw-3" value="&lt;div&gt;主节点&lt;/div&gt;&lt;div&gt;（事件发生器）&lt;/div&gt;" style="rounded=0;whiteSpace=wrap;html=1;" vertex="1" parent="1">
          <mxGeometry x="870" y="225" width="120" height="80" as="geometry" />
        </mxCell>
        <mxCell id="jyCma154ZdDsYqgbDztw-4" value="&lt;div&gt;主节点&lt;/div&gt;&lt;div&gt;（事件发生器）&lt;/div&gt;" style="rounded=0;whiteSpace=wrap;html=1;" vertex="1" parent="1">
          <mxGeometry x="880" y="235" width="120" height="80" as="geometry" />
        </mxCell>
        <mxCell id="jyCma154ZdDsYqgbDztw-5" value="&lt;div&gt;主节点&lt;/div&gt;&lt;div&gt;（事件发生器）&lt;/div&gt;" style="rounded=0;whiteSpace=wrap;html=1;" vertex="1" parent="1">
          <mxGeometry x="890" y="245" width="120" height="80" as="geometry" />
        </mxCell>
        <mxCell id="jyCma154ZdDsYqgbDztw-6" value="&lt;div&gt;从节点&lt;/div&gt;&lt;div&gt;（事件接收器）&lt;/div&gt;" style="rounded=0;whiteSpace=wrap;html=1;" vertex="1" parent="1">
          <mxGeometry x="900" y="255" width="120" height="80" as="geometry" />
        </mxCell>
        <mxCell id="jyCma154ZdDsYqgbDztw-7" value="" style="shape=cylinder3;whiteSpace=wrap;html=1;boundedLbl=1;backgroundOutline=1;size=5.103448275862036;" vertex="1" parent="1">
          <mxGeometry x="750" y="185" width="20" height="200" as="geometry" />
        </mxCell>
        <mxCell id="jyCma154ZdDsYqgbDztw-8" value="光扇出模块" style="text;html=1;strokeColor=none;fillColor=none;align=center;verticalAlign=middle;whiteSpace=wrap;rounded=0;" vertex="1" parent="1">
          <mxGeometry x="725" y="155" width="70" height="30" as="geometry" />
        </mxCell>
        <mxCell id="jyCma154ZdDsYqgbDztw-10" value="" style="endArrow=classic;html=1;rounded=0;entryX=0;entryY=0.45;entryDx=0;entryDy=0;entryPerimeter=0;exitX=1;exitY=0.5;exitDx=0;exitDy=0;" edge="1" parent="1" source="jyCma154ZdDsYqgbDztw-1" target="jyCma154ZdDsYqgbDztw-7">
          <mxGeometry width="50" height="50" relative="1" as="geometry">
            <mxPoint x="640" y="320" as="sourcePoint" />
            <mxPoint x="750" y="270" as="targetPoint" />
          </mxGeometry>
        </mxCell>
        <mxCell id="jyCma154ZdDsYqgbDztw-12" value="" style="endArrow=classic;html=1;rounded=0;entryX=0;entryY=0.25;entryDx=0;entryDy=0;exitX=0.969;exitY=0.301;exitDx=0;exitDy=0;exitPerimeter=0;" edge="1" parent="1" source="jyCma154ZdDsYqgbDztw-7" target="jyCma154ZdDsYqgbDztw-3">
          <mxGeometry width="50" height="50" relative="1" as="geometry">
            <mxPoint x="780" y="245" as="sourcePoint" />
            <mxPoint x="800" y="240" as="targetPoint" />
          </mxGeometry>
        </mxCell>
        <mxCell id="jyCma154ZdDsYqgbDztw-14" value="" style="endArrow=classic;html=1;rounded=0;" edge="1" parent="1">
          <mxGeometry width="50" height="50" relative="1" as="geometry">
            <mxPoint x="770" y="264.89" as="sourcePoint" />
            <mxPoint x="880" y="264.89" as="targetPoint" />
          </mxGeometry>
        </mxCell>
        <mxCell id="jyCma154ZdDsYqgbDztw-17" value="" style="endArrow=classic;html=1;rounded=0;" edge="1" parent="1">
          <mxGeometry width="50" height="50" relative="1" as="geometry">
            <mxPoint x="770" y="284.89" as="sourcePoint" />
            <mxPoint x="890" y="284.89" as="targetPoint" />
          </mxGeometry>
        </mxCell>
        <mxCell id="jyCma154ZdDsYqgbDztw-18" value="" style="endArrow=classic;html=1;rounded=0;" edge="1" parent="1">
          <mxGeometry width="50" height="50" relative="1" as="geometry">
            <mxPoint x="770" y="305" as="sourcePoint" />
            <mxPoint x="900" y="305" as="targetPoint" />
          </mxGeometry>
        </mxCell>
      </root>
    </mxGraphModel>
  </diagram>
</mxfile>
